<?xml version="1.0" encoding="UTF-8" standalone="no"?>
<!DOCTYPE svg PUBLIC "-//W3C//DTD SVG 1.1//EN"
 "http://www.w3.org/Graphics/SVG/1.1/DTD/svg11.dtd">
<!-- Generated by graphviz version 2.40.1 (20161225.0304)
 -->
<!-- Title: controllers_diagram Pages: 1 -->
<svg width="662pt" height="551pt"
 viewBox="0.00 0.00 662.44 551.00" xmlns="http://www.w3.org/2000/svg" xmlns:xlink="http://www.w3.org/1999/xlink">
<g id="graph0" class="graph" transform="scale(1 1) rotate(0) translate(4 547)">
<title>controllers_diagram</title>
<polygon fill="transparent" stroke="transparent" points="-4,4 -4,-547 658.4414,-547 658.4414,4 -4,4"/>
<!-- _diagram_info -->
<g id="node1" class="node">
<title>_diagram_info</title>
<text text-anchor="start" x="331" y="-58.6" font-family="Times,serif" font-size="13.00" fill="#000000">Controllers diagram</text>
<text text-anchor="start" x="331" y="-45.6" font-family="Times,serif" font-size="13.00" fill="#000000">Date: Nov 15 2018 &#45; 15:47</text>
<text text-anchor="start" x="331" y="-32.6" font-family="Times,serif" font-size="13.00" fill="#000000">Migration version: 20181026020026</text>
<text text-anchor="start" x="331" y="-19.6" font-family="Times,serif" font-size="13.00" fill="#000000">Generated by RailRoady 1.5.3</text>
<text text-anchor="start" x="331" y="-6.6" font-family="Times,serif" font-size="13.00" fill="#000000">http://railroady.prestonlee.com</text>
</g>
<!-- ApplicationController -->
<g id="node2" class="node">
<title>ApplicationController</title>
<path fill="none" stroke="#000000" d="M12,-425.5C12,-425.5 127.6416,-425.5 127.6416,-425.5 133.6416,-425.5 139.6416,-431.5 139.6416,-437.5 139.6416,-437.5 139.6416,-505.5 139.6416,-505.5 139.6416,-511.5 133.6416,-517.5 127.6416,-517.5 127.6416,-517.5 12,-517.5 12,-517.5 6,-517.5 0,-511.5 0,-505.5 0,-505.5 0,-437.5 0,-437.5 0,-431.5 6,-425.5 12,-425.5"/>
<text text-anchor="middle" x="69.8208" y="-502.3" font-family="Times,serif" font-size="14.00" fill="#000000">ApplicationController</text>
<polyline fill="none" stroke="#000000" points="0,-495.5 139.6416,-495.5 "/>
<polyline fill="none" stroke="#000000" points="0,-471.5 139.6416,-471.5 "/>
<polyline fill="none" stroke="#000000" points="0,-447.5 139.6416,-447.5 "/>
<text text-anchor="start" x="8" y="-432.3" font-family="Times,serif" font-size="14.00" fill="#000000">_layout</text>
</g>
<!-- PrioritiesController -->
<g id="node3" class="node">
<title>PrioritiesController</title>
<path fill="none" stroke="#000000" d="M182,-85.5C182,-85.5 282.876,-85.5 282.876,-85.5 288.876,-85.5 294.876,-91.5 294.876,-97.5 294.876,-97.5 294.876,-275.5 294.876,-275.5 294.876,-281.5 288.876,-287.5 282.876,-287.5 282.876,-287.5 182,-287.5 182,-287.5 176,-287.5 170,-281.5 170,-275.5 170,-275.5 170,-97.5 170,-97.5 170,-91.5 176,-85.5 182,-85.5"/>
<text text-anchor="middle" x="232.438" y="-272.3" font-family="Times,serif" font-size="14.00" fill="#000000">PrioritiesController</text>
<polyline fill="none" stroke="#000000" points="170,-265.5 294.876,-265.5 "/>
<text text-anchor="start" x="178" y="-250.3" font-family="Times,serif" font-size="14.00" fill="#000000">create</text>
<text text-anchor="start" x="178" y="-236.3" font-family="Times,serif" font-size="14.00" fill="#000000">destroy</text>
<text text-anchor="start" x="178" y="-222.3" font-family="Times,serif" font-size="14.00" fill="#000000">edit</text>
<text text-anchor="start" x="178" y="-208.3" font-family="Times,serif" font-size="14.00" fill="#000000">index</text>
<text text-anchor="start" x="178" y="-194.3" font-family="Times,serif" font-size="14.00" fill="#000000">new</text>
<text text-anchor="start" x="178" y="-180.3" font-family="Times,serif" font-size="14.00" fill="#000000">show</text>
<text text-anchor="start" x="178" y="-166.3" font-family="Times,serif" font-size="14.00" fill="#000000">update</text>
<polyline fill="none" stroke="#000000" points="170,-159.5 294.876,-159.5 "/>
<polyline fill="none" stroke="#000000" points="170,-135.5 294.876,-135.5 "/>
<text text-anchor="start" x="178" y="-120.3" font-family="Times,serif" font-size="14.00" fill="#000000">_layout</text>
<text text-anchor="start" x="178" y="-106.3" font-family="Times,serif" font-size="14.00" fill="#000000">priority_params</text>
<text text-anchor="start" x="178" y="-92.3" font-family="Times,serif" font-size="14.00" fill="#000000">set_priority</text>
</g>
<!-- StatusesController -->
<g id="node4" class="node">
<title>StatusesController</title>
<path fill="none" stroke="#000000" d="M403,-340.5C403,-340.5 498.4346,-340.5 498.4346,-340.5 504.4346,-340.5 510.4346,-346.5 510.4346,-352.5 510.4346,-352.5 510.4346,-530.5 510.4346,-530.5 510.4346,-536.5 504.4346,-542.5 498.4346,-542.5 498.4346,-542.5 403,-542.5 403,-542.5 397,-542.5 391,-536.5 391,-530.5 391,-530.5 391,-352.5 391,-352.5 391,-346.5 397,-340.5 403,-340.5"/>
<text text-anchor="middle" x="450.7173" y="-527.3" font-family="Times,serif" font-size="14.00" fill="#000000">StatusesController</text>
<polyline fill="none" stroke="#000000" points="391,-520.5 510.4346,-520.5 "/>
<text text-anchor="start" x="399" y="-505.3" font-family="Times,serif" font-size="14.00" fill="#000000">create</text>
<text text-anchor="start" x="399" y="-491.3" font-family="Times,serif" font-size="14.00" fill="#000000">destroy</text>
<text text-anchor="start" x="399" y="-477.3" font-family="Times,serif" font-size="14.00" fill="#000000">edit</text>
<text text-anchor="start" x="399" y="-463.3" font-family="Times,serif" font-size="14.00" fill="#000000">index</text>
<text text-anchor="start" x="399" y="-449.3" font-family="Times,serif" font-size="14.00" fill="#000000">new</text>
<text text-anchor="start" x="399" y="-435.3" font-family="Times,serif" font-size="14.00" fill="#000000">show</text>
<text text-anchor="start" x="399" y="-421.3" font-family="Times,serif" font-size="14.00" fill="#000000">update</text>
<polyline fill="none" stroke="#000000" points="391,-414.5 510.4346,-414.5 "/>
<polyline fill="none" stroke="#000000" points="391,-390.5 510.4346,-390.5 "/>
<text text-anchor="start" x="399" y="-375.3" font-family="Times,serif" font-size="14.00" fill="#000000">_layout</text>
<text text-anchor="start" x="399" y="-361.3" font-family="Times,serif" font-size="14.00" fill="#000000">set_status</text>
<text text-anchor="start" x="399" y="-347.3" font-family="Times,serif" font-size="14.00" fill="#000000">status_params</text>
</g>
<!-- CommentsController -->
<g id="node5" class="node">
<title>CommentsController</title>
<path fill="none" stroke="#000000" d="M12,-.5C12,-.5 122.2139,-.5 122.2139,-.5 128.2139,-.5 134.2139,-6.5 134.2139,-12.5 134.2139,-12.5 134.2139,-134.5 134.2139,-134.5 134.2139,-140.5 128.2139,-146.5 122.2139,-146.5 122.2139,-146.5 12,-146.5 12,-146.5 6,-146.5 0,-140.5 0,-134.5 0,-134.5 0,-12.5 0,-12.5 0,-6.5 6,-.5 12,-.5"/>
<text text-anchor="middle" x="67.1069" y="-131.3" font-family="Times,serif" font-size="14.00" fill="#000000">CommentsController</text>
<polyline fill="none" stroke="#000000" points="0,-124.5 134.2139,-124.5 "/>
<text text-anchor="start" x="8" y="-109.3" font-family="Times,serif" font-size="14.00" fill="#000000">create</text>
<text text-anchor="start" x="8" y="-95.3" font-family="Times,serif" font-size="14.00" fill="#000000">destroy</text>
<text text-anchor="start" x="8" y="-81.3" font-family="Times,serif" font-size="14.00" fill="#000000">update</text>
<polyline fill="none" stroke="#000000" points="0,-74.5 134.2139,-74.5 "/>
<polyline fill="none" stroke="#000000" points="0,-50.5 134.2139,-50.5 "/>
<text text-anchor="start" x="8" y="-35.3" font-family="Times,serif" font-size="14.00" fill="#000000">_layout</text>
<text text-anchor="start" x="8" y="-21.3" font-family="Times,serif" font-size="14.00" fill="#000000">comment_params</text>
<text text-anchor="start" x="8" y="-7.3" font-family="Times,serif" font-size="14.00" fill="#000000">set_comment</text>
</g>
<!-- CustomersController -->
<g id="node6" class="node">
<title>CustomersController</title>
<path fill="none" stroke="#000000" d="M335,-102.5C335,-102.5 444.4346,-102.5 444.4346,-102.5 450.4346,-102.5 456.4346,-108.5 456.4346,-114.5 456.4346,-114.5 456.4346,-292.5 456.4346,-292.5 456.4346,-298.5 450.4346,-304.5 444.4346,-304.5 444.4346,-304.5 335,-304.5 335,-304.5 329,-304.5 323,-298.5 323,-292.5 323,-292.5 323,-114.5 323,-114.5 323,-108.5 329,-102.5 335,-102.5"/>
<text text-anchor="middle" x="389.7173" y="-289.3" font-family="Times,serif" font-size="14.00" fill="#000000">CustomersController</text>
<polyline fill="none" stroke="#000000" points="323,-282.5 456.4346,-282.5 "/>
<text text-anchor="start" x="331" y="-267.3" font-family="Times,serif" font-size="14.00" fill="#000000">create</text>
<text text-anchor="start" x="331" y="-253.3" font-family="Times,serif" font-size="14.00" fill="#000000">destroy</text>
<text text-anchor="start" x="331" y="-239.3" font-family="Times,serif" font-size="14.00" fill="#000000">edit</text>
<text text-anchor="start" x="331" y="-225.3" font-family="Times,serif" font-size="14.00" fill="#000000">index</text>
<text text-anchor="start" x="331" y="-211.3" font-family="Times,serif" font-size="14.00" fill="#000000">new</text>
<text text-anchor="start" x="331" y="-197.3" font-family="Times,serif" font-size="14.00" fill="#000000">show</text>
<text text-anchor="start" x="331" y="-183.3" font-family="Times,serif" font-size="14.00" fill="#000000">update</text>
<polyline fill="none" stroke="#000000" points="323,-176.5 456.4346,-176.5 "/>
<polyline fill="none" stroke="#000000" points="323,-152.5 456.4346,-152.5 "/>
<text text-anchor="start" x="331" y="-137.3" font-family="Times,serif" font-size="14.00" fill="#000000">_layout</text>
<text text-anchor="start" x="331" y="-123.3" font-family="Times,serif" font-size="14.00" fill="#000000">customer_params</text>
<text text-anchor="start" x="331" y="-109.3" font-family="Times,serif" font-size="14.00" fill="#000000">set_customer</text>
</g>
<!-- TicketsController -->
<g id="node7" class="node">
<title>TicketsController</title>
<path fill="none" stroke="#000000" d="M29,-187.5C29,-187.5 119.2666,-187.5 119.2666,-187.5 125.2666,-187.5 131.2666,-193.5 131.2666,-199.5 131.2666,-199.5 131.2666,-377.5 131.2666,-377.5 131.2666,-383.5 125.2666,-389.5 119.2666,-389.5 119.2666,-389.5 29,-389.5 29,-389.5 23,-389.5 17,-383.5 17,-377.5 17,-377.5 17,-199.5 17,-199.5 17,-193.5 23,-187.5 29,-187.5"/>
<text text-anchor="middle" x="74.1333" y="-374.3" font-family="Times,serif" font-size="14.00" fill="#000000">TicketsController</text>
<polyline fill="none" stroke="#000000" points="17,-367.5 131.2666,-367.5 "/>
<text text-anchor="start" x="25" y="-352.3" font-family="Times,serif" font-size="14.00" fill="#000000">create</text>
<text text-anchor="start" x="25" y="-338.3" font-family="Times,serif" font-size="14.00" fill="#000000">destroy</text>
<text text-anchor="start" x="25" y="-324.3" font-family="Times,serif" font-size="14.00" fill="#000000">edit</text>
<text text-anchor="start" x="25" y="-310.3" font-family="Times,serif" font-size="14.00" fill="#000000">index</text>
<text text-anchor="start" x="25" y="-296.3" font-family="Times,serif" font-size="14.00" fill="#000000">new</text>
<text text-anchor="start" x="25" y="-282.3" font-family="Times,serif" font-size="14.00" fill="#000000">show</text>
<text text-anchor="start" x="25" y="-268.3" font-family="Times,serif" font-size="14.00" fill="#000000">update</text>
<polyline fill="none" stroke="#000000" points="17,-261.5 131.2666,-261.5 "/>
<polyline fill="none" stroke="#000000" points="17,-237.5 131.2666,-237.5 "/>
<text text-anchor="start" x="25" y="-222.3" font-family="Times,serif" font-size="14.00" fill="#000000">_layout</text>
<text text-anchor="start" x="25" y="-208.3" font-family="Times,serif" font-size="14.00" fill="#000000">set_ticket</text>
<text text-anchor="start" x="25" y="-194.3" font-family="Times,serif" font-size="14.00" fill="#000000">ticket_params</text>
</g>
<!-- Users::SessionsController -->
<g id="node8" class="node">
<title>Users::SessionsController</title>
<path fill="none" stroke="#000000" d="M505,-102.5C505,-102.5 642.4414,-102.5 642.4414,-102.5 648.4414,-102.5 654.4414,-108.5 654.4414,-114.5 654.4414,-114.5 654.4414,-182.5 654.4414,-182.5 654.4414,-188.5 648.4414,-194.5 642.4414,-194.5 642.4414,-194.5 505,-194.5 505,-194.5 499,-194.5 493,-188.5 493,-182.5 493,-182.5 493,-114.5 493,-114.5 493,-108.5 499,-102.5 505,-102.5"/>
<text text-anchor="middle" x="573.7207" y="-179.3" font-family="Times,serif" font-size="14.00" fill="#000000">Users::SessionsController</text>
<polyline fill="none" stroke="#000000" points="493,-172.5 654.4414,-172.5 "/>
<polyline fill="none" stroke="#000000" points="493,-148.5 654.4414,-148.5 "/>
<polyline fill="none" stroke="#000000" points="493,-124.5 654.4414,-124.5 "/>
<text text-anchor="start" x="501" y="-109.3" font-family="Times,serif" font-size="14.00" fill="#000000">_layout</text>
</g>
<!-- DashboardController -->
<g id="node9" class="node">
<title>DashboardController</title>
<path fill="none" stroke="#000000" d="M505,-221.5C505,-221.5 615.1934,-221.5 615.1934,-221.5 621.1934,-221.5 627.1934,-227.5 627.1934,-233.5 627.1934,-233.5 627.1934,-299.5 627.1934,-299.5 627.1934,-305.5 621.1934,-311.5 615.1934,-311.5 615.1934,-311.5 505,-311.5 505,-311.5 499,-311.5 493,-305.5 493,-299.5 493,-299.5 493,-233.5 493,-233.5 493,-227.5 499,-221.5 505,-221.5"/>
<text text-anchor="middle" x="560.0967" y="-296.3" font-family="Times,serif" font-size="14.00" fill="#000000">DashboardController</text>
<polyline fill="none" stroke="#000000" points="493,-289.5 627.1934,-289.5 "/>
<text text-anchor="start" x="501" y="-274.3" font-family="Times,serif" font-size="14.00" fill="#000000">index</text>
<polyline fill="none" stroke="#000000" points="493,-267.5 627.1934,-267.5 "/>
<polyline fill="none" stroke="#000000" points="493,-243.5 627.1934,-243.5 "/>
<text text-anchor="start" x="501" y="-228.3" font-family="Times,serif" font-size="14.00" fill="#000000">_layout</text>
</g>
<!-- AnalistsController -->
<g id="node10" class="node">
<title>AnalistsController</title>
<path fill="none" stroke="#000000" d="M182,-323.5C182,-323.5 277.4346,-323.5 277.4346,-323.5 283.4346,-323.5 289.4346,-329.5 289.4346,-335.5 289.4346,-335.5 289.4346,-499.5 289.4346,-499.5 289.4346,-505.5 283.4346,-511.5 277.4346,-511.5 277.4346,-511.5 182,-511.5 182,-511.5 176,-511.5 170,-505.5 170,-499.5 170,-499.5 170,-335.5 170,-335.5 170,-329.5 176,-323.5 182,-323.5"/>
<text text-anchor="middle" x="229.7173" y="-496.3" font-family="Times,serif" font-size="14.00" fill="#000000">AnalistsController</text>
<polyline fill="none" stroke="#000000" points="170,-489.5 289.4346,-489.5 "/>
<text text-anchor="start" x="178" y="-474.3" font-family="Times,serif" font-size="14.00" fill="#000000">create</text>
<text text-anchor="start" x="178" y="-460.3" font-family="Times,serif" font-size="14.00" fill="#000000">destroy</text>
<text text-anchor="start" x="178" y="-446.3" font-family="Times,serif" font-size="14.00" fill="#000000">edit</text>
<text text-anchor="start" x="178" y="-432.3" font-family="Times,serif" font-size="14.00" fill="#000000">index</text>
<text text-anchor="start" x="178" y="-418.3" font-family="Times,serif" font-size="14.00" fill="#000000">new</text>
<text text-anchor="start" x="178" y="-404.3" font-family="Times,serif" font-size="14.00" fill="#000000">show</text>
<text text-anchor="start" x="178" y="-390.3" font-family="Times,serif" font-size="14.00" fill="#000000">update</text>
<polyline fill="none" stroke="#000000" points="170,-383.5 289.4346,-383.5 "/>
<polyline fill="none" stroke="#000000" points="170,-359.5 289.4346,-359.5 "/>
<text text-anchor="start" x="178" y="-344.3" font-family="Times,serif" font-size="14.00" fill="#000000">_layout</text>
<text text-anchor="start" x="178" y="-330.3" font-family="Times,serif" font-size="14.00" fill="#000000">user_params</text>
</g>
</g>
</svg>
