<?xml version="1.0" encoding="UTF-8" standalone="no"?>
<!DOCTYPE svg PUBLIC "-//W3C//DTD SVG 1.1//EN"
 "http://www.w3.org/Graphics/SVG/1.1/DTD/svg11.dtd">
<!-- Generated by graphviz version 2.40.1 (20161225.0304)
 -->
<!-- Title: models_diagram Pages: 1 -->
<svg width="1522pt" height="538pt"
 viewBox="0.00 0.00 1522.08 538.00" xmlns="http://www.w3.org/2000/svg" xmlns:xlink="http://www.w3.org/1999/xlink">
<g id="graph0" class="graph" transform="scale(1 1) rotate(0) translate(4 534)">
<title>models_diagram</title>
<polygon fill="transparent" stroke="transparent" points="-4,4 -4,-534 1518.0835,-534 1518.0835,4 -4,4"/>
<!-- _diagram_info -->
<g id="node1" class="node">
<title>_diagram_info</title>
<text text-anchor="start" x="8" y="-473.6" font-family="Times,serif" font-size="13.00" fill="#000000">Models diagram</text>
<text text-anchor="start" x="8" y="-460.6" font-family="Times,serif" font-size="13.00" fill="#000000">Date: Nov 15 2018 &#45; 15:47</text>
<text text-anchor="start" x="8" y="-447.6" font-family="Times,serif" font-size="13.00" fill="#000000">Migration version: 20181026020026</text>
<text text-anchor="start" x="8" y="-434.6" font-family="Times,serif" font-size="13.00" fill="#000000">Generated by RailRoady 1.5.3</text>
<text text-anchor="start" x="8" y="-421.6" font-family="Times,serif" font-size="13.00" fill="#000000">http://railroady.prestonlee.com</text>
</g>
<!-- Status -->
<g id="node2" class="node">
<title>Status</title>
<path fill="none" stroke="#000000" d="M573.8254,-401.5C573.8254,-401.5 797.55,-401.5 797.55,-401.5 803.55,-401.5 809.55,-407.5 809.55,-413.5 809.55,-413.5 809.55,-489.5 809.55,-489.5 809.55,-495.5 803.55,-501.5 797.55,-501.5 797.55,-501.5 573.8254,-501.5 573.8254,-501.5 567.8254,-501.5 561.8254,-495.5 561.8254,-489.5 561.8254,-489.5 561.8254,-413.5 561.8254,-413.5 561.8254,-407.5 567.8254,-401.5 573.8254,-401.5"/>
<text text-anchor="middle" x="685.6877" y="-486.3" font-family="Times,serif" font-size="14.00" fill="#000000">Status</text>
<polyline fill="none" stroke="#000000" points="561.8254,-479.5 809.55,-479.5 "/>
<text text-anchor="start" x="569.8254" y="-464.3" font-family="Times,serif" font-size="14.00" fill="#000000">id :bigint</text>
<text text-anchor="start" x="569.8254" y="-450.3" font-family="Times,serif" font-size="14.00" fill="#000000">name :character varying</text>
<text text-anchor="start" x="569.8254" y="-436.3" font-family="Times,serif" font-size="14.00" fill="#000000">level :integer</text>
<text text-anchor="start" x="569.8254" y="-422.3" font-family="Times,serif" font-size="14.00" fill="#000000">created_at :timestamp without time zone</text>
<text text-anchor="start" x="569.8254" y="-408.3" font-family="Times,serif" font-size="14.00" fill="#000000">updated_at :timestamp without time zone</text>
</g>
<!-- Ticket -->
<g id="node7" class="node">
<title>Ticket</title>
<path fill="none" stroke="#000000" d="M477.8254,-152.5C477.8254,-152.5 701.55,-152.5 701.55,-152.5 707.55,-152.5 713.55,-158.5 713.55,-164.5 713.55,-164.5 713.55,-310.5 713.55,-310.5 713.55,-316.5 707.55,-322.5 701.55,-322.5 701.55,-322.5 477.8254,-322.5 477.8254,-322.5 471.8254,-322.5 465.8254,-316.5 465.8254,-310.5 465.8254,-310.5 465.8254,-164.5 465.8254,-164.5 465.8254,-158.5 471.8254,-152.5 477.8254,-152.5"/>
<text text-anchor="middle" x="589.6877" y="-307.3" font-family="Times,serif" font-size="14.00" fill="#000000">Ticket</text>
<polyline fill="none" stroke="#000000" points="465.8254,-300.5 713.55,-300.5 "/>
<text text-anchor="start" x="473.8254" y="-285.3" font-family="Times,serif" font-size="14.00" fill="#000000">solution :text</text>
<text text-anchor="start" x="473.8254" y="-271.3" font-family="Times,serif" font-size="14.00" fill="#000000">description :character varying</text>
<text text-anchor="start" x="473.8254" y="-257.3" font-family="Times,serif" font-size="14.00" fill="#000000">customer_id :bigint</text>
<text text-anchor="start" x="473.8254" y="-243.3" font-family="Times,serif" font-size="14.00" fill="#000000">admin_id :bigint</text>
<text text-anchor="start" x="473.8254" y="-229.3" font-family="Times,serif" font-size="14.00" fill="#000000">user_id :bigint</text>
<text text-anchor="start" x="473.8254" y="-215.3" font-family="Times,serif" font-size="14.00" fill="#000000">priority_id :bigint</text>
<text text-anchor="start" x="473.8254" y="-201.3" font-family="Times,serif" font-size="14.00" fill="#000000">status_id :bigint</text>
<text text-anchor="start" x="473.8254" y="-187.3" font-family="Times,serif" font-size="14.00" fill="#000000">created_at :timestamp without time zone</text>
<text text-anchor="start" x="473.8254" y="-173.3" font-family="Times,serif" font-size="14.00" fill="#000000">updated_at :timestamp without time zone</text>
<text text-anchor="start" x="473.8254" y="-159.3" font-family="Times,serif" font-size="14.00" fill="#000000">id :bigint</text>
</g>
<!-- Status&#45;&gt;Ticket -->
<g id="edge1" class="edge">
<title>Status&#45;&gt;Ticket</title>
<path fill="none" stroke="#fa9ec2" d="M676.8556,-393.4333C673.0897,-376.128 667.8575,-357.4117 660.6877,-341 659.3574,-337.9549 657.9337,-334.9053 656.4323,-331.8625"/>
<ellipse fill="none" stroke="#fa9ec2" cx="677.6705" cy="-397.3554" rx="4" ry="4"/>
<polygon fill="#fa9ec2" stroke="#fa9ec2" points="656.3179,-331.642 655.7053,-320.6932 654.0145,-327.2041 651.7112,-322.7662 651.7112,-322.7662 651.7112,-322.7662 654.0145,-327.2041 647.7171,-324.8392 656.3179,-331.642 656.3179,-331.642"/>
</g>
<!-- Customer -->
<g id="node3" class="node">
<title>Customer</title>
<path fill="none" stroke="#000000" d="M839.8254,-408.5C839.8254,-408.5 1063.55,-408.5 1063.55,-408.5 1069.55,-408.5 1075.55,-414.5 1075.55,-420.5 1075.55,-420.5 1075.55,-482.5 1075.55,-482.5 1075.55,-488.5 1069.55,-494.5 1063.55,-494.5 1063.55,-494.5 839.8254,-494.5 839.8254,-494.5 833.8254,-494.5 827.8254,-488.5 827.8254,-482.5 827.8254,-482.5 827.8254,-420.5 827.8254,-420.5 827.8254,-414.5 833.8254,-408.5 839.8254,-408.5"/>
<text text-anchor="middle" x="951.6877" y="-479.3" font-family="Times,serif" font-size="14.00" fill="#000000">Customer</text>
<polyline fill="none" stroke="#000000" points="827.8254,-472.5 1075.55,-472.5 "/>
<text text-anchor="start" x="835.8254" y="-457.3" font-family="Times,serif" font-size="14.00" fill="#000000">id :bigint</text>
<text text-anchor="start" x="835.8254" y="-443.3" font-family="Times,serif" font-size="14.00" fill="#000000">name :character varying</text>
<text text-anchor="start" x="835.8254" y="-429.3" font-family="Times,serif" font-size="14.00" fill="#000000">created_at :timestamp without time zone</text>
<text text-anchor="start" x="835.8254" y="-415.3" font-family="Times,serif" font-size="14.00" fill="#000000">updated_at :timestamp without time zone</text>
</g>
<!-- Customer&#45;&gt;Ticket -->
<g id="edge2" class="edge">
<title>Customer&#45;&gt;Ticket</title>
<path fill="none" stroke="#1d8eb0" d="M871.8327,-404.2929C828.0045,-378.3834 772.5227,-345.5848 722.3783,-315.9414"/>
<ellipse fill="none" stroke="#1d8eb0" cx="875.4238" cy="-406.4158" rx="4" ry="4"/>
<polygon fill="#1d8eb0" stroke="#1d8eb0" points="722.3408,-315.9193 716.0225,-306.9566 718.0366,-313.3748 713.7325,-310.8303 713.7325,-310.8303 713.7325,-310.8303 718.0366,-313.3748 711.4425,-314.7041 722.3408,-315.9193 722.3408,-315.9193"/>
</g>
<!-- Priority -->
<g id="node4" class="node">
<title>Priority</title>
<path fill="none" stroke="#000000" d="M1105.8254,-401.5C1105.8254,-401.5 1329.55,-401.5 1329.55,-401.5 1335.55,-401.5 1341.55,-407.5 1341.55,-413.5 1341.55,-413.5 1341.55,-489.5 1341.55,-489.5 1341.55,-495.5 1335.55,-501.5 1329.55,-501.5 1329.55,-501.5 1105.8254,-501.5 1105.8254,-501.5 1099.8254,-501.5 1093.8254,-495.5 1093.8254,-489.5 1093.8254,-489.5 1093.8254,-413.5 1093.8254,-413.5 1093.8254,-407.5 1099.8254,-401.5 1105.8254,-401.5"/>
<text text-anchor="middle" x="1217.6877" y="-486.3" font-family="Times,serif" font-size="14.00" fill="#000000">Priority</text>
<polyline fill="none" stroke="#000000" points="1093.8254,-479.5 1341.55,-479.5 "/>
<text text-anchor="start" x="1101.8254" y="-464.3" font-family="Times,serif" font-size="14.00" fill="#000000">id :bigint</text>
<text text-anchor="start" x="1101.8254" y="-450.3" font-family="Times,serif" font-size="14.00" fill="#000000">name :character varying</text>
<text text-anchor="start" x="1101.8254" y="-436.3" font-family="Times,serif" font-size="14.00" fill="#000000">level :integer</text>
<text text-anchor="start" x="1101.8254" y="-422.3" font-family="Times,serif" font-size="14.00" fill="#000000">created_at :timestamp without time zone</text>
<text text-anchor="start" x="1101.8254" y="-408.3" font-family="Times,serif" font-size="14.00" fill="#000000">updated_at :timestamp without time zone</text>
</g>
<!-- Priority&#45;&gt;Ticket -->
<g id="edge3" class="edge">
<title>Priority&#45;&gt;Ticket</title>
<path fill="none" stroke="#700b14" d="M1133.515,-397.3179C1117.6724,-388.4272 1100.9624,-379.8846 1084.6877,-373 966.7574,-323.1125 825.2351,-286.534 723.7753,-264.0437"/>
<ellipse fill="none" stroke="#700b14" cx="1137.2517" cy="-399.4442" rx="4" ry="4"/>
<polygon fill="#700b14" stroke="#700b14" points="723.5416,-263.9924 714.742,-257.4489 718.6584,-262.9181 713.7751,-261.8438 713.7751,-261.8438 713.7751,-261.8438 718.6584,-262.9181 712.8083,-266.2387 723.5416,-263.9924 723.5416,-263.9924"/>
</g>
<!-- Comment -->
<g id="node5" class="node">
<title>Comment</title>
<path fill="none" stroke="#000000" d="M298.8254,-.5C298.8254,-.5 522.55,-.5 522.55,-.5 528.55,-.5 534.55,-6.5 534.55,-12.5 534.55,-12.5 534.55,-102.5 534.55,-102.5 534.55,-108.5 528.55,-114.5 522.55,-114.5 522.55,-114.5 298.8254,-114.5 298.8254,-114.5 292.8254,-114.5 286.8254,-108.5 286.8254,-102.5 286.8254,-102.5 286.8254,-12.5 286.8254,-12.5 286.8254,-6.5 292.8254,-.5 298.8254,-.5"/>
<text text-anchor="middle" x="410.6877" y="-99.3" font-family="Times,serif" font-size="14.00" fill="#000000">Comment</text>
<polyline fill="none" stroke="#000000" points="286.8254,-92.5 534.55,-92.5 "/>
<text text-anchor="start" x="294.8254" y="-77.3" font-family="Times,serif" font-size="14.00" fill="#000000">id :bigint</text>
<text text-anchor="start" x="294.8254" y="-63.3" font-family="Times,serif" font-size="14.00" fill="#000000">text :text</text>
<text text-anchor="start" x="294.8254" y="-49.3" font-family="Times,serif" font-size="14.00" fill="#000000">user_id :bigint</text>
<text text-anchor="start" x="294.8254" y="-35.3" font-family="Times,serif" font-size="14.00" fill="#000000">created_at :timestamp without time zone</text>
<text text-anchor="start" x="294.8254" y="-21.3" font-family="Times,serif" font-size="14.00" fill="#000000">updated_at :timestamp without time zone</text>
<text text-anchor="start" x="294.8254" y="-7.3" font-family="Times,serif" font-size="14.00" fill="#000000">ticket_id :bigint</text>
</g>
<!-- ApplicationRecord -->
<g id="node6" class="node">
<title>ApplicationRecord</title>
<ellipse fill="none" stroke="#000000" cx="1436.6877" cy="-451.5" rx="77.2916" ry="18"/>
<text text-anchor="middle" x="1436.6877" y="-447.3" font-family="Times,serif" font-size="14.00" fill="#000000">ApplicationRecord</text>
</g>
<!-- Ticket&#45;&gt;Comment -->
<g id="edge4" class="edge">
<title>Ticket&#45;&gt;Comment</title>
<path fill="none" stroke="#ebc876" d="M498.9701,-146.2755C490.7882,-138.048 482.62,-129.8341 474.7388,-121.9089"/>
<ellipse fill="none" stroke="#ebc876" cx="502.085" cy="-149.4078" rx="4" ry="4"/>
<polygon fill="#ebc876" stroke="#ebc876" points="474.641,-121.8105 470.7805,-111.5467 471.1153,-118.2652 467.5896,-114.7198 467.5896,-114.7198 467.5896,-114.7198 471.1153,-118.2652 464.3988,-117.8929 474.641,-121.8105 474.641,-121.8105"/>
</g>
<!-- User -->
<g id="node8" class="node">
<title>User</title>
<path fill="none" stroke="#000000" d="M237.053,-373.5C237.053,-373.5 532.3225,-373.5 532.3225,-373.5 538.3225,-373.5 544.3225,-379.5 544.3225,-385.5 544.3225,-385.5 544.3225,-517.5 544.3225,-517.5 544.3225,-523.5 538.3225,-529.5 532.3225,-529.5 532.3225,-529.5 237.053,-529.5 237.053,-529.5 231.053,-529.5 225.053,-523.5 225.053,-517.5 225.053,-517.5 225.053,-385.5 225.053,-385.5 225.053,-379.5 231.053,-373.5 237.053,-373.5"/>
<text text-anchor="middle" x="384.6877" y="-514.3" font-family="Times,serif" font-size="14.00" fill="#000000">User</text>
<polyline fill="none" stroke="#000000" points="225.053,-507.5 544.3225,-507.5 "/>
<text text-anchor="start" x="233.053" y="-492.3" font-family="Times,serif" font-size="14.00" fill="#000000">updated_at :timestamp without time zone</text>
<text text-anchor="start" x="233.053" y="-478.3" font-family="Times,serif" font-size="14.00" fill="#000000">name :character varying</text>
<text text-anchor="start" x="233.053" y="-464.3" font-family="Times,serif" font-size="14.00" fill="#000000">email :character varying</text>
<text text-anchor="start" x="233.053" y="-450.3" font-family="Times,serif" font-size="14.00" fill="#000000">encrypted_password :character varying</text>
<text text-anchor="start" x="233.053" y="-436.3" font-family="Times,serif" font-size="14.00" fill="#000000">reset_password_token :character varying</text>
<text text-anchor="start" x="233.053" y="-422.3" font-family="Times,serif" font-size="14.00" fill="#000000">reset_password_sent_at :timestamp without time zone</text>
<text text-anchor="start" x="233.053" y="-408.3" font-family="Times,serif" font-size="14.00" fill="#000000">remember_created_at :timestamp without time zone</text>
<text text-anchor="start" x="233.053" y="-394.3" font-family="Times,serif" font-size="14.00" fill="#000000">created_at :timestamp without time zone</text>
<text text-anchor="start" x="233.053" y="-380.3" font-family="Times,serif" font-size="14.00" fill="#000000">id :bigint</text>
</g>
<!-- User&#45;&gt;Comment -->
<g id="edge7" class="edge">
<title>User&#45;&gt;Comment</title>
<path fill="none" stroke="#77d737" d="M390.3957,-365.0029C395.1618,-292.7778 401.8608,-191.2617 406.2373,-124.9419"/>
<ellipse fill="none" stroke="#77d737" cx="390.119" cy="-369.1959" rx="4" ry="4"/>
<polygon fill="#77d737" stroke="#77d737" points="406.2605,-124.5883 411.4093,-114.9064 406.5898,-119.5992 406.9191,-114.61 406.9191,-114.61 406.9191,-114.61 406.5898,-119.5992 402.4288,-114.3137 406.2605,-124.5883 406.2605,-124.5883"/>
</g>
<!-- User&#45;&gt;Ticket -->
<g id="edge5" class="edge">
<title>User&#45;&gt;Ticket</title>
<path fill="none" stroke="#eba45a" d="M451.6067,-367.0384C459.3575,-358.081 467.3005,-349.2418 475.1497,-341 478.6976,-337.2746 482.3574,-333.526 486.0923,-329.7785"/>
<ellipse fill="none" stroke="#eba45a" cx="448.8797" cy="-370.2168" rx="4" ry="4"/>
<polygon fill="#eba45a" stroke="#eba45a" points="486.2542,-329.6181 496.5252,-325.7765 489.8061,-326.099 493.358,-322.5798 493.358,-322.5798 493.358,-322.5798 489.8061,-326.099 490.1908,-319.3831 486.2542,-329.6181 486.2542,-329.6181"/>
<text text-anchor="middle" x="514.9568" y="-343.8" font-family="Times,serif" font-size="14.00" fill="#000000">admin_tickets</text>
</g>
<!-- User&#45;&gt;Ticket -->
<g id="edge6" class="edge">
<title>User&#45;&gt;Ticket</title>
<path fill="none" stroke="#fb0a48" d="M542.557,-367.5536C546.4881,-363.5269 550.2139,-359.3432 553.6877,-355 559.315,-347.9644 564.0653,-340.053 568.0749,-331.746"/>
<ellipse fill="none" stroke="#fb0a48" cx="539.5119" cy="-370.5402" rx="4" ry="4"/>
<polygon fill="#fb0a48" stroke="#fb0a48" points="568.0788,-331.7371 576.2533,-324.4277 570.1101,-327.1683 572.1414,-322.5995 572.1414,-322.5995 572.1414,-322.5995 570.1101,-327.1683 568.0295,-320.7713 568.0788,-331.7371 568.0788,-331.7371"/>
<text text-anchor="middle" x="604.1223" y="-343.8" font-family="Times,serif" font-size="14.00" fill="#000000">owned_tickets</text>
</g>
</g>
</svg>
