<?xml version="1.0" encoding="UTF-8" standalone="no"?>
<!DOCTYPE svg PUBLIC "-//W3C//DTD SVG 1.1//EN"
 "http://www.w3.org/Graphics/SVG/1.1/DTD/svg11.dtd">
<!-- Generated by graphviz version 2.40.1 (20161225.0304)
 -->
<!-- Title: models_diagram Pages: 1 -->
<svg width="828pt" height="240pt"
 viewBox="0.00 0.00 828.08 240.00" xmlns="http://www.w3.org/2000/svg" xmlns:xlink="http://www.w3.org/1999/xlink">
<g id="graph0" class="graph" transform="scale(1 1) rotate(0) translate(4 236)">
<title>models_diagram</title>
<polygon fill="transparent" stroke="transparent" points="-4,4 -4,-236 824.0835,-236 824.0835,4 -4,4"/>
<!-- _diagram_info -->
<g id="node1" class="node">
<title>_diagram_info</title>
<text text-anchor="start" x="8" y="-217.6" font-family="Times,serif" font-size="13.00" fill="#000000">Models diagram</text>
<text text-anchor="start" x="8" y="-204.6" font-family="Times,serif" font-size="13.00" fill="#000000">Date: Nov 15 2018 &#45; 15:47</text>
<text text-anchor="start" x="8" y="-191.6" font-family="Times,serif" font-size="13.00" fill="#000000">Migration version: 20181026020026</text>
<text text-anchor="start" x="8" y="-178.6" font-family="Times,serif" font-size="13.00" fill="#000000">Generated by RailRoady 1.5.3</text>
<text text-anchor="start" x="8" y="-165.6" font-family="Times,serif" font-size="13.00" fill="#000000">http://railroady.prestonlee.com</text>
</g>
<!-- Status -->
<g id="node2" class="node">
<title>Status</title>
<ellipse fill="none" stroke="#000000" cx="415.6877" cy="-195.5" rx="31.9567" ry="18"/>
<text text-anchor="middle" x="415.6877" y="-191.3" font-family="Times,serif" font-size="14.00" fill="#000000">Status</text>
</g>
<!-- Ticket -->
<g id="node7" class="node">
<title>Ticket</title>
<ellipse fill="none" stroke="#000000" cx="402.6877" cy="-91" rx="32.2768" ry="18"/>
<text text-anchor="middle" x="402.6877" y="-86.8" font-family="Times,serif" font-size="14.00" fill="#000000">Ticket</text>
</g>
<!-- Status&#45;&gt;Ticket -->
<g id="edge1" class="edge">
<title>Status&#45;&gt;Ticket</title>
<path fill="none" stroke="#cf2b91" d="M431.1387,-171.2542C437.5945,-157.9999 442.4116,-141.3968 436.6877,-127 434.7523,-122.1319 431.8118,-117.5416 428.4543,-113.3727"/>
<ellipse fill="none" stroke="#cf2b91" cx="429.0941" cy="-175.0978" rx="4" ry="4"/>
<polygon fill="#cf2b91" stroke="#cf2b91" points="428.3837,-113.2954 424.9609,-102.8774 425.0112,-109.604 421.6387,-105.9126 421.6387,-105.9126 421.6387,-105.9126 425.0112,-109.604 418.3164,-108.9479 428.3837,-113.2954 428.3837,-113.2954"/>
</g>
<!-- Customer -->
<g id="node3" class="node">
<title>Customer</title>
<ellipse fill="none" stroke="#000000" cx="509.6877" cy="-195.5" rx="44.4923" ry="18"/>
<text text-anchor="middle" x="509.6877" y="-191.3" font-family="Times,serif" font-size="14.00" fill="#000000">Customer</text>
</g>
<!-- Customer&#45;&gt;Ticket -->
<g id="edge2" class="edge">
<title>Customer&#45;&gt;Ticket</title>
<path fill="none" stroke="#1d5cb5" d="M491.854,-171.748C480.9747,-157.977 466.3726,-140.7057 451.6877,-127 445.719,-121.4293 438.8842,-115.9386 432.2515,-110.9881"/>
<ellipse fill="none" stroke="#1d5cb5" cx="494.4207" cy="-175.0412" rx="4" ry="4"/>
<polygon fill="#1d5cb5" stroke="#1d5cb5" points="432.1381,-110.906 426.6778,-101.3962 428.0883,-107.9735 424.0385,-105.041 424.0385,-105.041 424.0385,-105.041 428.0883,-107.9735 421.3993,-108.6858 432.1381,-110.906 432.1381,-110.906"/>
</g>
<!-- Priority -->
<g id="node4" class="node">
<title>Priority</title>
<ellipse fill="none" stroke="#000000" cx="609.6877" cy="-195.5" rx="37.2594" ry="18"/>
<text text-anchor="middle" x="609.6877" y="-191.3" font-family="Times,serif" font-size="14.00" fill="#000000">Priority</text>
</g>
<!-- Priority&#45;&gt;Ticket -->
<g id="edge3" class="edge">
<title>Priority&#45;&gt;Ticket</title>
<path fill="none" stroke="#2eb126" d="M584.6816,-174.1628C577.8032,-168.836 570.1707,-163.3953 562.6877,-159 522.9468,-135.657 473.6873,-115.9671 440.4048,-103.8778"/>
<ellipse fill="none" stroke="#2eb126" cx="588.1449" cy="-176.9183" rx="4" ry="4"/>
<polygon fill="#2eb126" stroke="#2eb126" points="440.032,-103.7444 432.1335,-96.1375 435.3245,-102.0593 430.617,-100.3743 430.617,-100.3743 430.617,-100.3743 435.3245,-102.0593 429.1005,-104.6111 440.032,-103.7444 440.032,-103.7444"/>
</g>
<!-- Comment -->
<g id="node5" class="node">
<title>Comment</title>
<ellipse fill="none" stroke="#000000" cx="231.6877" cy="-18" rx="44.9768" ry="18"/>
<text text-anchor="middle" x="231.6877" y="-13.8" font-family="Times,serif" font-size="14.00" fill="#000000">Comment</text>
</g>
<!-- ApplicationRecord -->
<g id="node6" class="node">
<title>ApplicationRecord</title>
<ellipse fill="none" stroke="#000000" cx="742.6877" cy="-195.5" rx="77.2916" ry="18"/>
<text text-anchor="middle" x="742.6877" y="-191.3" font-family="Times,serif" font-size="14.00" fill="#000000">ApplicationRecord</text>
</g>
<!-- Ticket&#45;&gt;Comment -->
<g id="edge4" class="edge">
<title>Ticket&#45;&gt;Comment</title>
<path fill="none" stroke="#78ce16" d="M369.1815,-76.6962C341.2521,-64.7731 301.3893,-47.7557 271.7713,-35.1117"/>
<ellipse fill="none" stroke="#78ce16" cx="373.0377" cy="-78.3424" rx="4" ry="4"/>
<polygon fill="#78ce16" stroke="#78ce16" points="271.7402,-35.0985 264.31,-27.0335 267.1417,-33.1353 262.5432,-31.1722 262.5432,-31.1722 262.5432,-31.1722 267.1417,-33.1353 260.7763,-35.3108 271.7402,-35.0985 271.7402,-35.0985"/>
</g>
<!-- User -->
<g id="node8" class="node">
<title>User</title>
<ellipse fill="none" stroke="#000000" cx="252.6877" cy="-195.5" rx="27" ry="18"/>
<text text-anchor="middle" x="252.6877" y="-191.3" font-family="Times,serif" font-size="14.00" fill="#000000">User</text>
</g>
<!-- User&#45;&gt;Comment -->
<g id="edge7" class="edge">
<title>User&#45;&gt;Comment</title>
<path fill="none" stroke="#808839" d="M247.9854,-169.2179C246.483,-160.2815 244.8978,-150.2232 243.6877,-141 239.4573,-108.7561 236.0297,-71.5761 233.9373,-46.6081"/>
<ellipse fill="none" stroke="#808839" cx="248.709" cy="-173.4357" rx="4" ry="4"/>
<polygon fill="#808839" stroke="#808839" points="233.916,-46.348 237.5827,-36.0133 233.5069,-41.3647 233.0978,-36.3815 233.0978,-36.3815 233.0978,-36.3815 233.5069,-41.3647 228.6129,-36.7497 233.916,-46.348 233.916,-46.348"/>
</g>
<!-- User&#45;&gt;Ticket -->
<g id="edge5" class="edge">
<title>User&#45;&gt;Ticket</title>
<path fill="none" stroke="#f09b97" d="M246.2194,-169.838C244.2497,-155.7405 244.6792,-138.7791 254.1497,-127 267.3517,-110.5796 321.3359,-100.678 360.4236,-95.5265"/>
<ellipse fill="none" stroke="#f09b97" cx="246.9153" cy="-173.8067" rx="4" ry="4"/>
<polygon fill="#f09b97" stroke="#f09b97" points="360.584,-95.5064 371.0676,-98.7227 365.5449,-94.8821 370.5058,-94.2579 370.5058,-94.2579 370.5058,-94.2579 365.5449,-94.8821 369.944,-89.7931 360.584,-95.5064 360.584,-95.5064"/>
<text text-anchor="middle" x="293.9568" y="-129.8" font-family="Times,serif" font-size="14.00" fill="#000000">admin_tickets</text>
</g>
<!-- User&#45;&gt;Ticket -->
<g id="edge6" class="edge">
<title>User&#45;&gt;Ticket</title>
<path fill="none" stroke="#1b8bbd" d="M278.7528,-178.0669C294.4666,-167.4769 314.8314,-153.6106 332.6877,-141 341.294,-134.922 343.2669,-133.1545 351.8186,-127 359.014,-121.8216 366.8146,-116.2701 374.0958,-111.1149"/>
<ellipse fill="none" stroke="#1b8bbd" cx="275.205" cy="-180.4533" rx="4" ry="4"/>
<polygon fill="#1b8bbd" stroke="#1b8bbd" points="374.1706,-111.0621 384.9343,-108.9662 378.254,-108.1766 382.3374,-105.2912 382.3374,-105.2912 382.3374,-105.2912 378.254,-108.1766 379.7405,-101.6161 374.1706,-111.0621 374.1706,-111.0621"/>
<text text-anchor="middle" x="393.1223" y="-129.8" font-family="Times,serif" font-size="14.00" fill="#000000">owned_tickets</text>
</g>
</g>
</svg>
